{
  "accessors": [
    {
      "bufferView": 2,
      "componentType": 5126,
      "count": 24,
      "max": [
        1.0,
        1.0,
        1.0
      ],
      "min": [
        -1.0,
        -1.0,
        -1.0
      ],
      "type": "VEC3"
    },
    {
      "bufferView": 2,
      "byteOffset": 288,
      "componentType": 5126,
      "count": 24,
      "max": [
        1.0,
        1.0,
        1.0
      ],
      "min": [
        -1.0,
        -1.0,
        -1.0
      ],
      "type": "VEC3"
    },
    {
      "bufferView": 1,
      "componentType": 5126,
      "count": 24,
      "max": [
        0.7499567270278931,
        0.9999133944511414
      ],
      "min": [
        8.658754813950509e-05,
        8.660554885864258e-05
      ],
      "type": "VEC2"
    },
    {
      "bufferView": 0,
      "componentType": 5125,
      "count": 36,
      "type": "SCALAR"
    },
    {
      "bufferView": 2,
      "byteOffset": 576,
      "componentType": 5126,
      "count": 65532,
      "max": [
        4.118342399597168,
        2.1593017578125,
        2.1014490127563477
      ],
      "min": [
        -5.830475807189941,
        -1.6892471313476563,
        -1.6287249326705933
      ],
      "type": "VEC3"
    },
    {
      "bufferView": 2,
      "byteOffset": 786960,
      "componentType": 5126,
      "count": 65532,
      "max": [
        1.0,
        1.0,
        1.0
      ],
      "min": [
        -1.0,
        -1.0,
        -0.9999472498893738
      ],
      "type": "VEC3"
    },
    {
      "bufferView": 1,
      "byteOffset": 192,
      "componentType": 5126,
      "count": 65532,
      "max": [
        0.9992169737815857,
        0.999517023563385
      ],
      "min": [
        0.000371000001905486,
        0.000276029109954834
      ],
      "type": "VEC2"
    },
    {
      "bufferView": 0,
      "byteOffset": 144,
      "componentType": 5125,
      "count": 299841,
      "type": "SCALAR"
    },
    {
      "bufferView": 2,
      "byteOffset": 1573344,
      "componentType": 5126,
      "count": 65532,
      "max": [
        4.118342399597168,
        2.1408329010009766,
        2.1246769428253174
      ],
      "min": [
        -5.830475807189941,
        -1.9824953079223633,
        -1.8995459079742432
      ],
      "type": "VEC3"
    },
    {
      "bufferView": 2,
      "byteOffset": 2359728,
      "componentType": 5126,
      "count": 65532,
      "max": [
        0.9934743046760559,
        0.9999942779541016,
        0.999984622001648
      ],
      "min": [
        -0.9998229742050171,
        -0.9999793767929077,
        -0.9999948143959045
      ],
      "type": "VEC3"
    },
    {
      "bufferView": 1,
      "byteOffset": 524448,
      "componentType": 5126,
      "count": 65532,
      "max": [
        0.9995309710502625,
        0.9994980096817017
      ],
      "min": [
        0.000307999987853691,
        0.00037300586700439453
      ],
      "type": "VEC2"
    },
    {
      "bufferView": 0,
      "byteOffset": 1199508,
      "componentType": 5125,
      "count": 274533,
      "type": "SCALAR"
    },
    {
      "bufferView": 2,
      "byteOffset": 3146112,
      "componentType": 5126,
      "count": 65532,
      "max": [
        4.0880842208862305,
        2.147073745727539,
        2.0994958877563477
      ],
      "min": [
        -5.8263139724731445,
        -1.988581657409668,
        -1.9323458671569824
      ],
      "type": "VEC3"
    },
    {
      "bufferView": 2,
      "byteOffset": 3932496,
      "componentType": 5126,
      "count": 65532,
      "max": [
        0.9996697902679443,
        0.9998873472213745,
        0.9999414086341858
      ],
      "min": [
        -0.9995113611221313,
        -0.9999690055847168,
        -0.9998670220375061
      ],
      "type": "VEC3"
    },
    {
      "bufferView": 1,
      "byteOffset": 1048704,
      "componentType": 5126,
      "count": 65532,
      "max": [
        0.9992709755897522,
        0.9995570182800293
      ],
      "min": [
        0.00027099999715574086,
        0.00028902292251586914
      ],
      "type": "VEC2"
    },
    {
      "bufferView": 0,
      "byteOffset": 2297640,
      "componentType": 5125,
      "count": 235920,
      "type": "SCALAR"
    },
    {
      "bufferView": 2,
      "byteOffset": 4718880,
      "componentType": 5126,
      "count": 65532,
      "max": [
        4.113237380981445,
        2.1554508209228516,
        2.1284470558166504
      ],
      "min": [
        -5.8263139724731445,
        -1.988581657409668,
        -1.9323458671569824
      ],
      "type": "VEC3"
    },
    {
      "bufferView": 2,
      "byteOffset": 5505264,
      "componentType": 5126,
      "count": 65532,
      "max": [
        0.9991022944450378,
        0.9999991059303284,
        0.9999414086341858
      ],
      "min": [
        -0.9999011754989624,
        -0.9997984766960144,
        -0.9999948143959045
      ],
      "type": "VEC3"
    },
    {
      "bufferView": 1,
      "byteOffset": 1572960,
      "componentType": 5126,
      "count": 65532,
      "max": [
        0.9995409846305847,
        0.9993579983711243
      ],
      "min": [
        0.0002789999998640269,
        0.0002859830856323242
      ],
      "type": "VEC2"
    },
    {
      "bufferView": 0,
      "byteOffset": 3241320,
      "componentType": 5125,
      "count": 185184,
      "type": "SCALAR"
    },
    {
      "bufferView": 2,
      "byteOffset": 6291648,
      "componentType": 5126,
      "count": 64653,
      "max": [
        4.11795711517334,
        2.1593017578125,
        2.1284470558166504
      ],
      "min": [
        -5.830475807189941,
        -1.9911861419677734,
        -1.9296258687973022
      ],
      "type": "VEC3"
    },
    {
      "bufferView": 2,
      "byteOffset": 7067484,
      "componentType": 5126,
      "count": 64653,
      "max": [
        1.0,
        1.0,
        0.999984622001648
      ],
      "min": [
        -1.0,
        -1.0,
        -1.0
      ],
      "type": "VEC3"
    },
    {
      "bufferView": 1,
      "byteOffset": 2097216,
      "componentType": 5126,
      "count": 64653,
      "max": [
        0.9995620250701904,
        0.9995440244674683
      ],
      "min": [
        0.00027099999715574086,
        0.00027501583099365234
      ],
      "type": "VEC2"
    },
    {
      "bufferView": 0,
      "byteOffset": 3982056,
      "componentType": 5125,
      "count": 108609,
      "type": "SCALAR"
    }
  ],
  "asset": {
    "extras": {
      "author": "ffish.asia / floraZia.com (https://sketchfab.com/ffishAsia-and-floraZia)",
      "license": "CC0-1.0 (http://creativecommons.org/publicdomain/zero/1.0/)",
      "source": "https://sketchfab.com/3d-models/cc0-bellflower-platycodon-grandiflorus-03d7c3a973e442f58e68c24881e6fa80",
      "title": "CC0 キキョウ Bellflower, Platycodon grandiflorus"
    },
    "generator": "Sketchfab-16.62.0",
    "version": "2.0"
  },
  "bufferViews": [
    {
      "buffer": 0,
      "byteLength": 4416492,
      "name": "floatBufferViews",
      "target": 34963
    },
    {
      "buffer": 0,
      "byteLength": 2614440,
      "byteOffset": 4416492,
      "byteStride": 8,
      "name": "floatBufferViews",
      "target": 34962
    },
    {
      "buffer": 0,
      "byteLength": 7843320,
      "byteOffset": 7030932,
      "byteStride": 12,
      "name": "floatBufferViews",
      "target": 34962
    }
  ],
  "buffers": [
    {
      "byteLength": 14874252,
      "uri": "scene.bin"
    }
  ],
  "extensionsUsed": [
    "KHR_materials_unlit"
  ],
  "images": [
    {
      "uri": "textures/Material.001_baseColor.jpeg"
    },
    {
      "uri": "textures/QS1316-W01-1all-2_baseColor.jpeg"
    }
  ],
  "materials": [
    {
      "doubleSided": true,
      "extensions": {
        "KHR_materials_unlit": {}
      },
      "name": "Material.001",
      "pbrMetallicRoughness": {
        "baseColorTexture": {
          "index": 0
        },
        "metallicFactor": 0.0
      }
    },
    {
      "doubleSided": true,
      "extensions": {
        "KHR_materials_unlit": {}
      },
      "name": "QS1316-W01-1all-2",
      "pbrMetallicRoughness": {
        "baseColorTexture": {
          "index": 1
        },
        "metallicFactor": 0.0
      }
    }
  ],
  "meshes": [
    {
      "name": "Object_0",
      "primitives": [
        {
          "attributes": {
            "NORMAL": 1,
            "POSITION": 0,
            "TEXCOORD_0": 2
          },
          "indices": 3,
          "material": 0,
          "mode": 4
        }
      ]
    },
    {
      "name": "Object_1",
      "primitives": [
        {
          "attributes": {
            "NORMAL": 5,
            "POSITION": 4,
            "TEXCOORD_0": 6
          },
          "indices": 7,
          "material": 1,
          "mode": 4
        }
      ]
    },
    {
      "name": "Object_2",
      "primitives": [
        {
          "attributes": {
            "NORMAL": 9,
            "POSITION": 8,
            "TEXCOORD_0": 10
          },
          "indices": 11,
          "material": 1,
          "mode": 4
        }
      ]
    },
    {
      "name": "Object_3",
      "primitives": [
        {
          "attributes": {
            "NORMAL": 13,
            "POSITION": 12,
            "TEXCOORD_0": 14
          },
          "indices": 15,
          "material": 1,
          "mode": 4
        }
      ]
    },
    {
      "name": "Object_4",
      "primitives": [
        {
          "attributes": {
            "NORMAL": 17,
            "POSITION": 16,
            "TEXCOORD_0": 18
          },
          "indices": 19,
          "material": 1,
          "mode": 4
        }
      ]
    },
    {
      "name": "Object_5",
      "primitives": [
        {
          "attributes": {
            "NORMAL": 21,
            "POSITION": 20,
            "TEXCOORD_0": 22
          },
          "indices": 23,
          "material": 1,
          "mode": 4
        }
      ]
    }
  ],
  "nodes": [
    {
      "children": [
        1
      ],
      "matrix": [
        1.0,
        0.0,
        0.0,
        0.0,
        0.0,
        2.220446049250313e-16,
        -1.0,
        0.0,
        0.0,
        1.0,
        2.220446049250313e-16,
        0.0,
        0.0,
        0.0,
        0.0,
        1.0
      ],
      "name": "Sketchfab_model"
    },
    {
      "children": [
        2
      ],
      "name": "root"
    },
    {
      "children": [
        3,
        5
      ],
      "matrix": [
        1.0,
        0.0,
        0.0,
        0.0,
        0.0,
        2.220446049250313e-16,
        1.0,
        0.0,
        0.0,
        -1.0,
        2.220446049250313e-16,
        0.0,
        0.0,
        0.0,
        0.0,
        1.0
      ],
      "name": "GLTF_SceneRootNode"
    },
    {
      "children": [
        4
      ],
      "matrix": [
        -0.000693912249704887,
        -0.3746211969031146,
        0.0013361935280565686,
        0.0,
        0.0017295061857122572,
        -0.0013393854296726065,
        -0.3746179252779295,
        0.0,
        0.37461967697710363,
        -0.0006877318572896146,
        0.0017319731461574845,
        0.0,
        3.844851016998291,
        0.020317554473876953,
        -0.00019154296023771167,
        1.0
      ],
      "name": "Cube_2"
    },
    {
      "mesh": 0,
      "name": "Object_4"
    },
    {
      "children": [
        6,
        7,
        8,
        9,
        10
      ],
      "matrix": [
        -0.07670875322573467,
        -0.9954807698920911,
        -0.0559803890090364,
        0.0,
        0.7065619574346502,
        -0.0146596497208209,
        -0.7074993250711821,
        0.0,
        0.7034813199258874,
        -0.09382500437043712,
        0.7044933648163186,
        0.0,
        0.0,
        -0.013600439764559269,
        0.2312074601650238,
        1.0
      ],
      "name": "QS1316-W01-1all-2_5"
    },
    {
      "mesh": 1,
      "name": "Object_6"
    },
    {
      "mesh": 2,
      "name": "Object_7"
    },
    {
      "mesh": 3,
      "name": "Object_8"
    },
    {
      "mesh": 4,
      "name": "Object_9"
    },
    {
      "mesh": 5,
      "name": "Object_10"
    }
  ],
  "samplers": [
    {
      "magFilter": 9729,
      "minFilter": 9987,
      "wrapS": 10497,
      "wrapT": 10497
    }
  ],
  "scene": 0,
  "scenes": [
    {
      "name": "Sketchfab_Scene",
      "nodes": [
        0
      ]
    }
  ],
  "textures": [
    {
      "sampler": 0,
      "source": 0
    },
    {
      "sampler": 0,
      "source": 1
    }
  ]
}
